[img]http://img580.imageshack.us/img580/1468/quizshowbluray320x200.jpg[/img]
 
http://www.imdb.com/title/tt0110932/

Source: Quiz.Show.1994.720p.BluRay.x264-PFa Thanks!

Subs: Brazilian, Danish, Dutch, English, Portuguese, Slovenian, Spanish, Turkish.

Sample and Screens included.

General
Complete name                            : Quiz Show 1994 720p BRRip x264 MP4 AAC-CC.mp4
Format                                   : MPEG-4
Format profile                           : Base Media
Codec ID                                 : isom
File size                                : 3.08 GiB
Duration                                 : 2h 12mn
Overall bit rate mode                    : Variable
Overall bit rate                         : 3 318 Kbps
Encoded date                             : UTC 2013-04-14 06:47:59
Tagged date                              : UTC 2013-04-14 06:47:59
Writing application                      : Yamb 2.1.0.0 

Video
ID                                       : 1
Format                                   : AVC
Format/Info                              : Advanced Video Codec
Format profile                           : High@L4.1
Format settings, CABAC                   : Yes
Format settings, ReFrames                : 5 frames
Codec ID                                 : avc1
Codec ID/Info                            : Advanced Video Coding
Duration                                 : 2h 12mn
Bit rate                                 : 2 957 Kbps
Maximum bit rate                         : 14.2 Mbps
Width                                    : 1 280 pixels
Height                                   : 688 pixels
Display aspect ratio                     : 1.85:1
Frame rate mode                          : Variable
Frame rate                               : 23.976 fps
Minimum frame rate                       : 15.873 fps
Maximum frame rate                       : 24.390 fps
Color space                              : YUV
Chroma subsampling                       : 4:2:0
Bit depth                                : 8 bits
Scan type                                : Progressive
Bits/(Pixel*Frame)                       : 0.140
Stream size                              : 2.72 GiB (88%)
Writing library                          : x264 core 112
Encoding settings                        : cabac=1 / ref=5 / deblock=1:0:0 / analyse=0x3:0x113 / me=hex / subme=7 / psy=1 / psy_rd=1.00:0.00 / mixed_ref=1 / me_range=16 / chroma_me=1 / trellis=1 / 8x8dct=1 / cqm=0 / deadzone=21,11 / fast_pskip=1 / chroma_qp_offset=-2 / threads=3 / sliced_threads=0 / nr=0 / decimate=1 / interlaced=0 / constrained_intra=0 / bframes=5 / b_pyramid=2 / b_adapt=2 / b_bias=0 / direct=1 / weightb=1 / open_gop=0 / weightp=2 / keyint=240 / keyint_min=24 / scenecut=40 / intra_refresh=0 / rc_lookahead=50 / rc=abr / mbtree=1 / bitrate=2957 / ratetol=1.0 / qcomp=0.60 / qpmin=3 / qpmax=51 / qpstep=4 / ip_ratio=1.40 / aq=1:1.00
Encoded date                             : UTC 2013-04-14 20:40:08
Tagged date                              : UTC 2013-04-14 06:52:32
Color primaries                          : BT.709
Transfer characteristics                 : BT.709
Matrix coefficients                      : BT.709

Audio
ID                                       : 2
Format                                   : AAC
Format/Info                              : Advanced Audio Codec
Format profile                           : LC
Codec ID                                 : 40
Duration                                 : 2h 12mn
Bit rate mode                            : Variable
Bit rate                                 : 384 Kbps
Maximum bit rate                         : 522 Kbps
Channel(s)                               : 6 channels
Channel positions                        : Front: L C R, Side: L R, LFE
Sampling rate                            : 48.0 KHz
Compression mode                         : Lossy
Delay relative to video                  : 83ms
Stream size                              : 364 MiB (12%)
Encoded date                             : UTC 2013-04-14 06:51:32
Tagged date                              : UTC 2013-04-14 06:52:32

Enjoy...

Requested by mrmuvis 

Coming soon: Mortal Kombat Annihilation, Borat, Immortal, The Duellist and more..

[img]http://img854.imageshack.us/img854/2842/quizshow1994720pbrripx2.png[/img]
[img]http://img826.imageshack.us/img826/2842/quizshow1994720pbrripx2.png[/img]
[img]http://img854.imageshack.us/img854/3200/quizshow1994720pbrripx2x.png[/img]
[img]http://img843.imageshack.us/img843/2842/quizshow1994720pbrripx2.png[/img]
[img]http://img59.imageshack.us/img59/2842/quizshow1994720pbrripx2.png[/img]
[img]http://img6.imageshack.us/img6/2842/quizshow1994720pbrripx2.png[/img]